<?xml version="1.0" encoding="UTF-8" standalone="no"?>
<!-- Created with Inkscape (http://www.inkscape.org/) -->

<svg
   width="210mm"
   height="297mm"
   viewBox="0 0 210 297"
   version="1.1"
   id="svg1"
   xml:space="preserve"
   inkscape:version="1.4-beta2 (9aaf4f3, 2024-07-30)"
   sodipodi:docname="gear_logo.svg"
   xmlns:inkscape="http://www.inkscape.org/namespaces/inkscape"
   xmlns:sodipodi="http://sodipodi.sourceforge.net/DTD/sodipodi-0.dtd"
   xmlns="http://www.w3.org/2000/svg"
   xmlns:svg="http://www.w3.org/2000/svg"><sodipodi:namedview
     id="namedview1"
     pagecolor="#ffffff"
     bordercolor="#000000"
     borderopacity="0.25"
     inkscape:showpageshadow="2"
     inkscape:pageopacity="0.0"
     inkscape:pagecheckerboard="0"
     inkscape:deskcolor="#d1d1d1"
     inkscape:document-units="mm"
     inkscape:zoom="0.47152308"
     inkscape:cx="288.42702"
     inkscape:cy="854.67714"
     inkscape:window-width="1920"
     inkscape:window-height="1011"
     inkscape:window-x="0"
     inkscape:window-y="32"
     inkscape:window-maximized="1"
     inkscape:current-layer="layer1" /><defs
     id="defs1"><mask
       maskUnits="userSpaceOnUse"
       id="mask2"><rect
         style="font-variation-settings:'wght' 700;opacity:1;fill:#ffffff;stroke-width:0.0207447;stroke-linejoin:round;paint-order:markers fill stroke"
         id="rect2"
         width="133.31999"
         height="133.31999"
         x="36.223335"
         y="18.229998" /></mask><filter
       style="color-interpolation-filters:sRGB;"
       inkscape:label="Drop Shadow"
       id="filter33"
       x="-0.0062719883"
       y="-0.0058095158"
       width="1.0148394"
       height="1.0140037"><feFlood
         result="flood"
         in="SourceGraphic"
         flood-opacity="0.498039"
         flood-color="rgb(0,0,0)"
         id="feFlood32" /><feGaussianBlur
         result="blur"
         in="SourceGraphic"
         stdDeviation="0.000000"
         id="feGaussianBlur32" /><feOffset
         result="offset"
         in="blur"
         dx="0.389034"
         dy="0.400000"
         id="feOffset32" /><feComposite
         result="comp1"
         operator="in"
         in="flood"
         in2="offset"
         id="feComposite32" /><feComposite
         result="comp2"
         operator="over"
         in="SourceGraphic"
         in2="comp1"
         id="feComposite33" /></filter></defs><g
     inkscape:label="Layer 1"
     inkscape:groupmode="layer"
     id="layer1"><rect
       style="font-variation-settings:'wght' 700;opacity:1;fill:#ffffff;fill-opacity:1;stroke:none;stroke-width:2.1;stroke-linecap:round;stroke-linejoin:round;stroke-dasharray:none;stroke-opacity:1;paint-order:markers fill stroke"
       id="rect33"
       width="270.93329"
       height="270.93329"
       x="-60.933319"
       y="123.10445"
       inkscape:export-filename="gear_logo_whitespace.png"
       inkscape:export-xdpi="210"
       inkscape:export-ydpi="210" /><path
       style="opacity:1;fill:#000000;fill-opacity:1;stroke:#ffffff;stroke-width:2.1;stroke-linecap:round;stroke-linejoin:round;stroke-dasharray:none;stroke-opacity:1;filter:url(#filter33)"
       d="m 11.002766,333.63402 c -24.08483,-2.26864 -25.34225,-37.11964 -1.5166397,-42.03582 3.7823297,-0.78045 17.8169177,0.26969 18.5150907,1.3854 0.242342,0.38727 1.551995,10.06225 1.396199,10.31434 -0.304238,0.49226 -1.039765,0.14235 -2.46282,-1.17164 -2.907464,-2.68463 -6.305596,-3.9026 -10.88824,-3.9026 -16.75074973,0 -18.3222198,26.18433 -1.73055,28.83487 1.63159,0.26064 2.41678,0.23908 5.6519,-0.15524 l 1.124479,-0.13706 -0.0015,-4.15097 c -0.0027,-7.20309 -0.131388,-7.531 -3.763969,-9.58804 -3.28002,-1.8574 -2.94464,-1.95977 6.702539,-2.04601 9.724893,-0.0869 9.892869,-0.0489 7.965785,1.80281 -1.5499,1.48928 -1.639263,2.06139 -1.640931,10.50536 l -0.0015,7.47092 -0.87937,0.36743 c -3.687192,1.54061 -13.945143,2.9325 -18.470463,2.50625 z m 28.257474,-0.9263 c -0.404593,-0.40459 -0.120234,-0.91728 0.734947,-1.32509 1.636854,-0.78056 1.602206,-0.36934 1.602206,-19.01547 0,-18.76586 0.09301,-17.74491 -1.713753,-18.81219 -0.942462,-0.55673 -1.047182,-1.14971 -0.204476,-1.15787 4.373108,-0.0423 28.340334,0.0139 28.392236,0.0666 0.03867,0.0393 0.27918,2.18872 0.534474,4.77654 0.551934,5.59476 0.479091,5.81834 -1.366358,4.19391 -1.914735,-1.68541 -2.951831,-1.88759 -9.682855,-1.88759 H 51.78385 v 4.36563 4.36562 h 4.915812 c 4.693225,0 4.994707,-0.0316 6.658232,-0.69707 2.437341,-0.97509 2.448872,-0.95241 2.448872,4.81629 0,5.42414 -0.122278,5.7061 -1.866351,4.30358 l -1.097001,-0.88217 -5.529782,-0.081 -5.529782,-0.081 v 4.90965 4.90964 l 5.225521,-0.002 c 7.239743,-0.002 9.690341,-0.50767 12.366617,-2.55116 0.828468,-0.63258 1.327514,-0.85849 1.504804,-0.6812 0.409231,0.40923 -1.724829,9.86049 -2.325666,10.29983 -0.503247,0.36798 -28.931812,0.52908 -29.294886,0.166 z m 34.244003,-0.19089 c -0.25366,-0.30564 -0.10212,-0.5171 0.80917,-1.12913 1.80752,-1.21394 2.68581,-3.29988 9.58111,-22.75503 4.86683,-13.73183 4.85512,-13.67971 3.37386,-15.01404 -1.30059,-1.17158 -1.04419,-1.21577 7.05448,-1.21577 h 7.614017 l 3.2692,9.19428 c 9.80765,27.58299 10.49933,29.25437 12.41212,29.9929 2.32877,0.89913 0.66871,1.16178 -7.34301,1.16178 -8.43215,0 -8.64813,-0.0406 -7.17865,-1.34993 1.03231,-0.91979 1.05091,-1.8067 0.11611,-5.53729 l -0.69411,-2.77007 h -7.589217 -7.58921 l -0.59719,2.36054 c -0.32846,1.29829 -0.66339,3.00189 -0.74429,3.78577 -0.15066,1.45973 -0.13832,1.48794 1.11207,2.54245 1.01656,0.85731 0.32372,0.9674 -6.53929,1.03907 -5.57842,0.0583 -6.80943,0.005 -7.06717,-0.30553 z m 26.633797,-16.89678 c -0.0666,-0.1819 -1.166824,-3.30729 -2.444867,-6.94531 -1.27803,-3.63802 -2.39801,-6.69884 -2.48885,-6.80182 -0.0908,-0.10298 -1.22424,2.87358 -2.51868,6.61458 -1.29444,3.741 -2.40759,6.95065 -2.47367,7.13255 -0.0935,0.25728 1.00889,0.33073 4.96354,0.33073 3.955203,0 5.056797,-0.0734 4.962527,-0.33073 z m 22.04065,16.88608 c -0.25909,-0.31218 -0.20951,-0.47808 0.25824,-0.86409 1.92098,-1.58528 1.86417,-0.9511 1.78241,-19.89565 l -0.0719,-16.67243 -0.99219,-1.01597 c -1.6862,-1.72663 -2.11888,-1.65559 10.05417,-1.65053 12.13299,0.005 13.28456,0.11518 16.38768,1.56731 8.86997,4.15076 8.46038,17.69925 -0.65848,21.78115 l -1.32191,0.59174 1.84914,3.0427 c 4.72554,7.77574 7.14816,10.98951 8.99407,11.93122 2.26061,1.15328 1.44047,1.4322 -4.15485,1.41304 -8.49855,-0.0291 -9.32183,-0.69345 -14.97912,-12.08749 l -1.67501,-3.37343 h -1.65855 -1.65854 v 5.96162 c 0,6.84906 0.14827,7.55401 1.72759,8.2139 0.65089,0.27196 0.92532,0.54146 0.8659,0.85037 -0.12298,0.63937 -14.22553,0.83686 -14.74865,0.20654 z m 18.54178,-21.67726 c 3.83168,-0.90189 5.68751,-3.63797 4.98394,-7.34789 -0.6766,-3.56767 -2.3152,-4.56073 -7.73254,-4.68624 l -3.90261,-0.0904 0.002,4.45604 c 0.001,2.45082 0.0778,5.25971 0.17056,6.24197 l 0.16867,1.78594 2.40913,-0.004 c 1.32503,-0.002 3.08046,-0.16215 3.90097,-0.35528 z M 68.046635,279.56782 C 60.138491,278.44327 51.084739,275.12935 44.37261,270.9025 l -2.251867,-1.41807 -1.187717,0.84114 c -11.117229,7.87327 -23.88686,-6.79806 -14.583823,-16.75569 l 0.808394,-0.86527 -1.441655,-2.88921 c -8.098016,-16.22918 -8.893246,-34.37534 -2.23611,-51.02492 l 1.302345,-3.25718 -0.562205,-1.71259 c -2.098235,-6.39166 5.79575,-10.98693 10.607699,-6.17498 3.711997,3.712 1.232981,10.56547 -3.821706,10.56547 -2.064539,0 -5.259455,10.23462 -6.091335,19.51302 l -0.171984,1.91823 h 6.906019 6.906019 v -1.66922 c 0,-2.38707 0.07961,-2.44576 4.439691,-3.27325 3.588399,-0.68103 3.785743,-0.75102 3.927721,-1.39302 0.285427,-1.29065 0.978277,-2.95578 1.709919,-4.10946 l 0.735652,-1.16001 -1.966908,-3.17075 c -2.548051,-4.10759 -2.697558,-3.51754 2.190422,-8.64474 5.106242,-5.35615 4.389447,-5.17382 8.823096,-2.24438 l 3.155913,2.0852 1.735532,-0.78693 c 0.954543,-0.43281 2.354257,-0.94374 3.110476,-1.1354 l 1.374943,-0.34847 0.98111,-3.80513 c 1.248142,-4.84078 0.623207,-4.47569 7.661032,-4.47569 h 5.76287 l 0.39142,1.38907 c 0.21528,0.76398 0.73012,2.57968 1.14408,4.03489 l 0.75266,2.64583 2.10446,0.6851 c 1.15745,0.3768 2.60557,0.94227 3.21806,1.2566 l 1.1136,0.5715 2.98744,-1.93955 c 4.18225,-2.71527 4.02999,-2.64818 4.94085,-2.17716 0.422163,0.21831 1.193117,0.90653 1.713247,1.52939 l 0.94568,1.13246 4.36894,-4.35701 4.36894,-4.35701 -0.72199,-0.76163 c -5.41441,-5.71166 -15.362707,-10.66263 -24.175927,-12.03164 l -1.49353,-0.232 -0.41486,0.86997 c -3.98929,8.36561 -16.385066,3.87815 -14.93044,-5.40504 1.131738,-7.22256 12.25542,-8.85488 15.01082,-2.20274 0.29299,0.70734 0.45064,0.7767 2.14474,0.94363 8.86345,0.87338 19.534797,5.99828 27.335837,13.12799 l 1.49752,1.36865 2.04672,-1.94825 c 1.1257,-1.07154 2.02465,-2.12685 1.99768,-2.34513 -0.027,-0.21828 -0.3648,-1.40891 -0.75073,-2.64583 -4.52802,-14.5126 14.21505,-25.56398 25.05933,-14.7756 12.42696,12.3629 -3.22076,32.63244 -18.21935,23.60076 l -1.50928,-0.90884 -2.06006,2.04797 -2.06006,2.04797 0.65522,0.80689 c 5.74531,7.07528 10.86625,18.69335 11.66169,26.45736 l 0.18068,1.76356 1.25809,0.63752 c 7.8217,3.96355 2.2744,15.73929 -6.10357,12.95658 -5.1192,-1.70032 -6.41518,-9.26846 -2.09817,-12.25264 1.18313,-0.81785 1.21453,-1.01465 0.62587,-3.9225 -1.58948,-7.85168 -5.191,-15.76905 -9.72619,-21.38154 l -0.6318,-0.78187 -4.39007,4.19479 -4.39008,4.19479 0.51907,0.72897 c 0.80535,1.13101 0.6541,1.67923 -1.34821,4.88686 l -1.86729,2.99132 0.84689,1.67622 c 0.46579,0.92192 1.04712,2.26441 1.29185,2.98331 l 0.44495,1.30709 3.6492,0.7368 c 4.83453,0.97613 4.38085,0.16962 4.38085,7.78781 0,7.66031 0.46396,6.8759 -4.69635,7.93994 -2.49731,0.51493 -3.50573,0.83011 -3.50573,1.09569 0,0.57007 -1.32947,3.77989 -2.02335,4.88509 l -0.6168,0.98243 1.98153,3.14766 c 2.49781,3.96776 2.49782,3.95026 -0.005,6.26456 l -2.00287,1.85209 3.40964,3.39563 3.40964,3.39563 1.41116,-0.41907 c 8.23277,-2.44487 14.09786,7.18088 8.29144,13.60789 -2.19052,2.42465 -6.45078,3.28829 -9.44655,1.91501 l -1.2796,-0.58658 -2.49802,1.47017 c -6.701327,3.94394 -13.519797,6.48994 -21.268817,7.94172 -3.18719,0.59712 -13.5226,0.73821 -17.074718,0.23309 z m 5.168468,-12.56495 v -7.14375 l -0.99219,-0.0119 c -2.27421,-0.0273 -2.478307,-0.27948 -3.50573,-4.33081 l -0.926042,-3.65157 -1.852083,-0.5902 c -1.018646,-0.32461 -2.475531,-0.86157 -3.237522,-1.19324 l -1.38544,-0.60304 -2.719657,1.73376 c -4.504482,2.87156 -3.705333,3.08486 -9.074311,-2.42202 -4.750422,-4.87243 -4.61298,-4.32414 -2.074267,-8.27474 1.902646,-2.96078 2.025028,-3.23517 1.679188,-3.76497 -0.889476,-1.36263 -1.861899,-3.51869 -2.012911,-4.46307 -0.205529,-1.2853 -0.297938,-1.33023 -4.458412,-2.16756 -3.915237,-0.78797 -4.101042,-0.92332 -4.101042,-2.98725 v -1.40464 h -6.783369 -6.783369 l 0.180517,2.05052 c 0.502063,5.70303 2.710275,13.173 5.611857,18.98385 l 1.717515,3.43959 2.358246,0.0216 c 6.326072,0.0579 11.400952,5.95504 10.733247,12.47222 l -0.170432,1.66351 2.20063,1.43445 c 6.969742,4.5431 17.625336,8.169 24.471097,8.32705 l 1.12448,0.026 z m 12.83794,6.20588 c 5.66779,-1.11942 11.42594,-3.39938 17.017027,-6.73794 l 2.43219,-1.45232 -0.15555,-1.32292 c -0.0855,-0.7276 -0.0323,-1.85869 0.11834,-2.51354 l 0.27389,-1.19062 -3.3438,-3.35753 c -2.883697,-2.89555 -3.437504,-3.33984 -4.024937,-3.22894 -0.52101,0.0984 -1.45869,-0.36109 -3.98844,-1.9543 l -3.30729,-2.0829 -1.82174,0.8691 c -1.00196,0.47801 -2.46281,1.01257 -3.24634,1.18791 -1.61458,0.36133 -1.54695,0.22887 -2.7528,5.39166 -0.6672,2.85659 -0.59547,2.7702 -2.46018,2.96266 l -1.4929,0.15408 v 7.12779 7.12779 l 1.78594,-0.17589 c 0.98227,-0.0967 3.21723,-0.45858 4.96659,-0.80409 z m -3.8925,-33.54585 c 18.652357,-6.60707 14.82257,-34.15264 -4.87174,-35.03975 -14.130871,-0.63652 -23.296949,13.34195 -17.125474,26.11672 3.761435,7.78606 13.758574,11.84134 21.997214,8.92303 z"
       id="path3"
       inkscape:export-filename="gear_logo.png"
       inkscape:export-xdpi="210"
       inkscape:export-ydpi="210" /></g></svg>
